<svg width="24" height="24" viewBox="0 0 24 24" fill="none" xmlns="http://www.w3.org/2000/svg">
<path fill-rule="evenodd" clip-rule="evenodd" d="M18.6365 6.63601C18.988 6.28453 18.988 5.71469 18.6365 5.36321C18.285 5.01174 17.7152 5.01174 17.3637 5.36321L12.0001 10.7268L6.63649 5.36321C6.28502 5.01174 5.71517 5.01174 5.3637 5.36321C5.01223 5.71469 5.01223 6.28453 5.3637 6.63601L10.7273 11.9996L5.3637 17.3632C5.01223 17.7147 5.01223 18.2845 5.3637 18.636C5.71517 18.9875 6.28502 18.9875 6.63649 18.636L12.0001 13.2724L17.3637 18.636C17.7152 18.9875 18.285 18.9875 18.6365 18.636C18.988 18.2845 18.988 17.7147 18.6365 17.3632L13.2729 11.9996L18.6365 6.63601Z" fill="#B1B3B5"/>
</svg>
