<svg width="16" height="16" viewBox="0 0 16 16" fill="none" xmlns="http://www.w3.org/2000/svg">
<path fill-rule="evenodd" clip-rule="evenodd" d="M9.43335 1.0001C9.43335 0.503041 9.83629 0.100098 10.3333 0.100098H13.4445C14.0957 0.100098 14.7203 0.358807 15.1808 0.819313C15.6413 1.27982 15.9 1.9044 15.9 2.55565V13.4445C15.9 14.0958 15.6413 14.7204 15.1808 15.1809C14.7203 15.6414 14.0957 15.9001 13.4445 15.9001H10.3333C9.83629 15.9001 9.43335 15.4972 9.43335 15.0001C9.43335 14.503 9.83629 14.1001 10.3333 14.1001H13.4445C13.6183 14.1001 13.7851 14.031 13.908 13.9081C14.0309 13.7851 14.1 13.6184 14.1 13.4445V2.55565C14.1 2.38179 14.0309 2.21505 13.908 2.09211C13.7851 1.96916 13.6183 1.9001 13.4445 1.9001H10.3333C9.83629 1.9001 9.43335 1.49715 9.43335 1.0001ZM5.80804 3.47503C6.15951 3.12356 6.72936 3.12356 7.08083 3.47503L10.9552 7.34944C11.1267 7.5133 11.2334 7.74423 11.2334 8.0001C11.2334 8.128 11.2068 8.24967 11.1587 8.35985C11.1149 8.46036 11.0519 8.55451 10.9697 8.63671L7.08083 12.5256C6.72936 12.8771 6.15951 12.8771 5.80804 12.5256C5.45657 12.1741 5.45657 11.6043 5.80804 11.2528L8.16075 8.9001H1.0001C0.503041 8.9001 0.100098 8.49715 0.100098 8.0001C0.100098 7.50304 0.503041 7.1001 1.0001 7.1001H8.16031L5.80804 4.74782C5.45657 4.39635 5.45657 3.8265 5.80804 3.47503Z" fill="white"/>
</svg>
