<svg width="21" height="16" viewBox="0 0 21 16" fill="none" xmlns="http://www.w3.org/2000/svg">
<path fill-rule="evenodd" clip-rule="evenodd" d="M0.80872 5.18496C1.2125 5.18496 1.61744 4.9097 1.61744 4.38095V3.59758H1.60936V3.4393H1.61628V2.33134H7.46883C8.04335 2.33134 8.27754 1.92876 8.27754 1.52733C8.27754 1.1259 8.04335 0.722168 7.46883 0.722168H0.80872C0.383018 0.722168 0 1.10296 0 1.52733V3.43815H0.00115479V3.59643H0V4.3798C0 4.90855 0.404937 5.18382 0.80872 5.18382V5.18496ZM12.3545 7.81671C12.3545 7.41528 12.0777 7.0127 11.5458 7.0127H10.7579L9.25926 7.01384L8.47131 7.0127C7.93947 7.0127 7.6626 7.41528 7.6626 7.81671C7.6626 8.21814 7.93947 8.62072 8.47131 8.62072H9.25926L10.7579 8.61958L11.5458 8.62072C12.0777 8.62072 12.3545 8.21814 12.3545 7.81671ZM1.61628 13.6745H7.46883V13.6733C8.04335 13.6733 8.27754 14.0747 8.27754 14.4773C8.27754 14.8799 8.04335 15.2813 7.46883 15.2813H0.80872C0.383018 15.2813 0 14.9006 0 14.4773V12.0859H0.0080765V12.0596H0V11.2762C0 10.7474 0.404937 10.4722 0.80872 10.4722C1.2125 10.4722 1.61744 10.7474 1.61744 11.2762V12.0596H1.61628V12.0859V13.6745ZM20.0275 3.43815V1.52733C20.0275 1.10296 19.6445 0.722168 19.2188 0.722168H12.5587C11.9842 0.722168 11.75 1.12475 11.75 1.52733C11.75 1.92991 11.9842 2.33134 12.5587 2.33134H18.4113V3.4393H18.4182V3.59758H18.4101V4.38095C18.4101 4.9097 18.815 5.18496 19.2188 5.18496C19.6226 5.18496 20.0275 4.9097 20.0275 4.38095V3.59758H20.0264V3.4393H20.0275V3.43815ZM18.4101 11.2762C18.4101 10.7474 18.815 10.4722 19.2188 10.4722V10.4733C19.6226 10.4733 20.0275 10.7486 20.0275 11.2773V12.0607H20.0195V12.0871H20.0275V14.4785C20.0275 14.9017 19.6445 15.2825 19.2188 15.2825H12.5587C11.9842 15.2825 11.75 14.8811 11.75 14.4785C11.75 14.0759 11.9842 13.6745 12.5587 13.6745H18.4113V12.0859V12.0596H18.4101V11.2762Z" fill="#B1B3B5"/>
</svg>
