<svg width="24" height="24" viewBox="0 0 24 24" fill="none" xmlns="http://www.w3.org/2000/svg">
<path fill-rule="evenodd" clip-rule="evenodd" d="M6.55516 5.90059C6.19311 5.90059 5.89961 6.19409 5.89961 6.55614V17.445C5.89961 17.8071 6.19311 18.1006 6.55516 18.1006H17.4441C17.8061 18.1006 18.0996 17.8071 18.0996 17.445V6.55614C18.0996 6.19409 17.8061 5.90059 17.4441 5.90059H6.55516ZM4.09961 6.55614C4.09961 5.19998 5.199 4.10059 6.55516 4.10059H17.4441C18.8002 4.10059 19.8996 5.19998 19.8996 6.55614V17.445C19.8996 18.8012 18.8002 19.9006 17.4441 19.9006H6.55516C5.199 19.9006 4.09961 18.8012 4.09961 17.445V6.55614Z" fill="#B1B3B5"/>
</svg>
