<svg width="16" height="16" viewBox="0 0 16 16" fill="none" xmlns="http://www.w3.org/2000/svg">
<path fill-rule="evenodd" clip-rule="evenodd" d="M2.55516 1.90059C2.19311 1.90059 1.89961 2.19409 1.89961 2.55614V13.445C1.89961 13.8071 2.19311 14.1006 2.55516 14.1006H13.4441C13.8061 14.1006 14.0996 13.8071 14.0996 13.445V2.55614C14.0996 2.19409 13.8061 1.90059 13.4441 1.90059H2.55516ZM0.0996094 2.55614C0.0996094 1.19998 1.199 0.100586 2.55516 0.100586H13.4441C14.8002 0.100586 15.8996 1.19998 15.8996 2.55614V13.445C15.8996 14.8012 14.8002 15.9006 13.4441 15.9006H2.55516C1.199 15.9006 0.0996094 14.8012 0.0996094 13.445V2.55614Z" fill="#B1B3B5"/>
</svg>
