<svg width="14" height="14" viewBox="0 0 14 14" fill="none" xmlns="http://www.w3.org/2000/svg">
<path fill-rule="evenodd" clip-rule="evenodd" d="M13.6365 1.63601C13.988 1.28453 13.988 0.714685 13.6365 0.363213C13.285 0.0117414 12.7152 0.0117414 12.3637 0.363213L7.0001 5.72682L1.63649 0.363213C1.28502 0.0117414 0.715173 0.0117414 0.363702 0.363213C0.0122297 0.714685 0.0122297 1.28453 0.363702 1.63601L5.7273 6.99961L0.363702 12.3632C0.0122297 12.7147 0.0122297 13.2845 0.363702 13.636C0.715173 13.9875 1.28502 13.9875 1.63649 13.636L7.0001 8.2724L12.3637 13.636C12.7152 13.9875 13.285 13.9875 13.6365 13.636C13.988 13.2845 13.988 12.7147 13.6365 12.3632L8.27289 6.99961L13.6365 1.63601Z" fill="#B1B3B5"/>
</svg>
