<svg width="16" height="16" viewBox="0 0 16 16" fill="none" xmlns="http://www.w3.org/2000/svg">
<path fill-rule="evenodd" clip-rule="evenodd" d="M13.9131 2.08759C13.7934 1.96785 13.631 1.90059 13.4616 1.90059H6.53856C6.36923 1.90059 6.20683 1.96785 6.0871 2.08759C5.96736 2.20732 5.9001 2.36972 5.9001 2.53905C5.9001 3.0361 5.49715 3.43905 5.0001 3.43905C4.50304 3.43905 4.1001 3.0361 4.1001 2.53905C4.1001 1.89233 4.35701 1.27209 4.81431 0.814795C5.27161 0.357495 5.89184 0.100586 6.53856 0.100586H13.4616C14.1084 0.100586 14.7286 0.357494 15.1859 0.814795C15.6432 1.2721 15.9001 1.89233 15.9001 2.53905V9.46212C15.9001 10.1088 15.6432 10.7291 15.1859 11.1864C14.7286 11.6437 14.1084 11.9006 13.4616 11.9006C12.9646 11.9006 12.5616 11.4976 12.5616 11.0006C12.5616 10.5035 12.9646 10.1006 13.4616 10.1006C13.631 10.1006 13.7934 10.0333 13.9131 9.91358C14.0328 9.79385 14.1001 9.63146 14.1001 9.46212V2.53905C14.1001 2.36972 14.0328 2.20732 13.9131 2.08759ZM10.0996 6.53905C10.0996 6.18643 9.81376 5.90059 9.46115 5.90059H2.53807C2.18546 5.90059 1.89961 6.18643 1.89961 6.53905V13.4621C1.89961 13.8147 2.18546 14.1006 2.53807 14.1006H9.46115C9.81376 14.1006 10.0996 13.8147 10.0996 13.4621V6.53905ZM9.46115 4.10059C10.8079 4.10059 11.8996 5.19232 11.8996 6.53905V13.4621C11.8996 14.8088 10.8079 15.9006 9.46115 15.9006H2.53807C1.19135 15.9006 0.0996094 14.8088 0.0996094 13.4621V6.53905C0.0996094 5.19232 1.19135 4.10059 2.53807 4.10059H9.46115Z" fill="#B1B3B5"/>
</svg>
