<svg width="24" height="24" viewBox="0 0 24 24" fill="none" xmlns="http://www.w3.org/2000/svg">
<path fill-rule="evenodd" clip-rule="evenodd" d="M13.4332 5.0001C13.4332 4.50304 13.8362 4.1001 14.3332 4.1001H17.4443C18.0956 4.1001 18.7202 4.35881 19.1807 4.81931C19.6412 5.27982 19.8999 5.9044 19.8999 6.55565V17.4445C19.8999 18.0958 19.6412 18.7204 19.1807 19.1809C18.7202 19.6414 18.0956 19.9001 17.4443 19.9001H14.3332C13.8362 19.9001 13.4332 19.4972 13.4332 19.0001C13.4332 18.503 13.8362 18.1001 14.3332 18.1001H17.4443C17.6182 18.1001 17.7849 18.031 17.9079 17.9081C18.0308 17.7851 18.0999 17.6184 18.0999 17.4445V6.55565C18.0999 6.38179 18.0308 6.21505 17.9079 6.09211C17.7849 5.96916 17.6182 5.9001 17.4443 5.9001H14.3332C13.8362 5.9001 13.4332 5.49715 13.4332 5.0001ZM9.80792 7.47503C10.1594 7.12356 10.7292 7.12356 11.0807 7.47503L14.9551 11.3494C15.1265 11.5133 15.2333 11.7442 15.2333 12.0001C15.2333 12.128 15.2066 12.2497 15.1585 12.3598C15.1148 12.4604 15.0518 12.5545 14.9696 12.6367L11.0807 16.5256C10.7292 16.8771 10.1594 16.8771 9.80792 16.5256C9.45644 16.1741 9.45644 15.6043 9.80792 15.2528L12.1606 12.9001H4.99998C4.50292 12.9001 4.09998 12.4972 4.09998 12.0001C4.09998 11.503 4.50292 11.1001 4.99998 11.1001H12.1602L9.80792 8.74782C9.45644 8.39635 9.45644 7.8265 9.80792 7.47503Z" fill="white"/>
</svg>
