<svg width="81" height="60" viewBox="0 0 81 60" fill="none" xmlns="http://www.w3.org/2000/svg">
<path fill-rule="evenodd" clip-rule="evenodd" d="M3.23488 18.7399C4.85001 18.7399 6.46976 17.6388 6.46976 15.5238V12.3903H6.43745V11.7572H6.46514V7.32537H29.8753C32.1734 7.32537 33.1102 5.71505 33.1102 4.10932C33.1102 2.50358 32.1734 0.888672 29.8753 0.888672H3.23488C1.53207 0.888672 0 2.41183 0 4.10932V11.7526H0.00461916V12.3857H0V15.5192C0 17.6342 1.61975 18.7353 3.23488 18.7353V18.7399ZM49.4182 29.2668C49.4182 27.6611 48.3107 26.0508 46.1833 26.0508H43.0315L37.0371 26.0554L33.8852 26.0508C31.7579 26.0508 30.6504 27.6611 30.6504 29.2668C30.6504 30.8726 31.7579 32.4829 33.8852 32.4829H37.0371L43.0315 32.4783L46.1833 32.4829C48.3107 32.4829 49.4182 30.8726 49.4182 29.2668ZM6.46514 52.6978H29.8753V52.6933C32.1734 52.6933 33.1102 54.299 33.1102 55.9093C33.1102 57.5196 32.1734 59.1254 29.8753 59.1254H3.23488C1.53207 59.1254 0 57.6022 0 55.9093V46.3437H0.032306V46.2382H0V43.1047C0 40.9897 1.61975 39.8887 3.23488 39.8887C4.85001 39.8887 6.46976 40.9897 6.46976 43.1047V46.2382H6.46514V46.3437V52.6978ZM80.1102 11.7526V4.10932C80.1102 2.41183 78.5781 0.888672 76.8753 0.888672H50.2349C47.9368 0.888672 47 2.49899 47 4.10932C47 5.71964 47.9368 7.32537 50.2349 7.32537H73.645V11.7572H73.6727V12.3903H73.6404V15.5238C73.6404 17.6388 75.2602 18.7399 76.8753 18.7399C78.4904 18.7399 80.1102 17.6388 80.1102 15.5238V12.3903H80.1056V11.7572H80.1102V11.7526ZM73.6404 43.1047C73.6404 40.9897 75.2602 39.8887 76.8753 39.8887V39.8933C78.4904 39.8933 80.1102 40.9943 80.1102 43.1093V46.2428H80.0779V46.3483H80.1102V55.9139C80.1102 57.6068 78.5781 59.13 76.8753 59.13H50.2349C47.9368 59.13 47 57.5242 47 55.9139C47 54.3036 47.9368 52.6978 50.2349 52.6978H73.645V46.3437V46.2382H73.6404V43.1047Z" fill="white"/>
</svg>
