<svg width="400" height="62" viewBox="0 0 400 62" fill="none" xmlns="http://www.w3.org/2000/svg">
<path d="M369.304 29.5113C369.304 28.1195 368.344 26.7236 366.5 26.7236H363.768L358.572 26.7276L355.84 26.7236C353.996 26.7236 353.036 28.1195 353.036 29.5113C353.036 30.9032 353.996 32.299 355.84 32.299H358.572L363.768 32.295L366.5 32.299C368.344 32.299 369.304 30.9032 369.304 29.5113Z" fill="white"/>
<path d="M328.944 20.4842C330.344 20.4842 331.748 19.5298 331.748 17.6965V14.9804H331.72V14.4316H331.744V10.5901H352.036C354.028 10.5901 354.84 9.19426 354.84 7.80241C354.84 6.41055 354.028 5.01074 352.036 5.01074H328.944C327.468 5.01074 326.14 6.33102 326.14 7.80241V14.4276H326.144V14.9764H326.14V17.6925C326.14 19.5258 327.544 20.4802 328.944 20.4802V20.4842Z" fill="white"/>
<path d="M352.036 50.1265H331.744V44.6187V44.5272H331.748V41.8111C331.748 39.9779 330.344 39.0234 328.944 39.0234C327.544 39.0234 326.14 39.9779 326.14 41.8111V44.5272H326.168V44.6187H326.14V52.9102C326.14 54.3776 327.468 55.6979 328.944 55.6979H352.036C354.028 55.6979 354.84 54.306 354.84 52.9102C354.84 51.5144 354.028 50.1225 352.036 50.1225V50.1265Z" fill="white"/>
<path d="M396.204 14.4276V7.80241C396.204 6.33102 394.876 5.01074 393.4 5.01074H370.308C368.316 5.01074 367.504 6.40658 367.504 7.80241C367.504 9.19824 368.316 10.5901 370.308 10.5901H390.6V14.4316H390.624V14.9804H390.596V17.6965C390.596 19.5298 392 20.4842 393.4 20.4842C394.8 20.4842 396.204 19.5298 396.204 17.6965V14.9804H396.2V14.4316H396.204V14.4276Z" fill="white"/>
<path d="M393.4 39.0234C392 39.0234 390.596 39.9779 390.596 41.8111V44.5272H390.6V44.6187V50.1265H370.308C368.316 50.1265 367.504 51.5183 367.504 52.9142C367.504 54.31 368.316 55.7019 370.308 55.7019H393.4C394.876 55.7019 396.204 54.3816 396.204 52.9142V44.6227H396.176V44.5312H396.204V41.8151C396.204 39.9818 394.8 39.0274 393.4 39.0274V39.0234Z" fill="white"/>
<path d="M18.772 26.2106C14.788 24.083 10.216 22.4685 10.216 17.1158C10.216 14.5508 12.208 10.1485 18.332 10.1485H18.996C23.496 10.1485 26.596 12.7891 26.964 16.3841C27.184 18.1418 28.512 19.0246 29.912 19.0246C31.312 19.0246 32.568 18.1458 32.568 16.3125C32.568 9.56397 26.224 4.57715 19.14 4.57715H18.4C10.652 4.57715 4.52802 10.0054 4.52802 17.1198C4.52802 26.5088 11.684 28.2665 18.768 32.2313C23.268 34.7248 27.548 36.4109 27.548 42.4277C27.548 47.7088 25.04 50.5681 19.212 50.5681H18.472C13.676 50.5681 9.39602 47.8559 9.39602 42.6464C9.39602 40.666 7.99602 39.8587 6.59202 39.8587C5.18802 39.8587 3.78802 40.7376 3.78802 42.5708C3.78802 51.4469 10.796 56.0679 18.396 56.0679H19.06C27.988 56.0679 33.152 50.9339 33.152 42.4993C33.152 32.5256 26.144 30.1793 18.764 26.2145L18.772 26.2106Z" fill="white"/>
<path d="M135.04 6.62524C134.6 5.23338 133.196 4.57324 131.648 4.57324C130.1 4.57324 128.772 5.23338 128.328 6.62524L113.94 52.5446C113.868 52.9104 113.792 53.2047 113.792 53.4234C113.792 54.8908 114.972 56.064 116.668 56.064C117.776 56.064 118.808 55.551 119.252 54.1591L122.572 43.5969H140.796L144.044 54.1591C144.484 55.551 145.592 56.064 146.7 56.064C148.396 56.064 149.576 54.8908 149.576 53.4234C149.576 53.2047 149.504 52.9104 149.428 52.5446L135.04 6.62524V6.62524ZM124.34 38.0215L131.644 14.5509L139.02 38.0215H124.336H124.34Z" fill="white"/>
<path d="M255.22 4.57324C253.816 4.57324 252.416 5.52766 252.416 7.36093V53.3518C252.416 55.1851 253.82 56.064 255.22 56.064C256.62 56.064 258.024 55.1851 258.024 53.3518V7.36093C258.024 5.52766 256.62 4.57324 255.22 4.57324V4.57324Z" fill="white"/>
<path d="M71.12 26.7236C69.276 26.7236 68.316 28.1195 68.316 29.5113C68.316 30.9032 69.276 32.299 71.12 32.299H73.852L79.048 32.295L81.78 32.299C83.624 32.299 84.584 30.9032 84.584 29.5113C84.584 28.1195 83.624 26.7236 81.78 26.7236H79.048L73.852 26.7276L71.12 26.7236Z" fill="white"/>
<path d="M87.976 5.01081H64.884C63.408 5.01081 62.08 6.33109 62.08 7.80248V14.4277H62.084V14.9765H62.08V17.6926C62.08 19.5259 63.484 20.4803 64.884 20.4803C66.284 20.4803 67.688 19.5259 67.688 17.6926V14.9765H67.66V14.4277H67.684V10.5862H87.972C89.964 10.5862 90.776 9.19036 90.776 7.7985C90.776 6.40665 89.964 5.00684 87.972 5.00684L87.976 5.01081Z" fill="white"/>
<path d="M87.976 50.1265H67.688V44.6187V44.5272H67.692V41.8111C67.692 39.9779 66.288 39.0234 64.888 39.0234C63.488 39.0234 62.084 39.9779 62.084 41.8111V44.5272H62.112V44.6187H62.084V52.9102C62.084 54.3776 63.412 55.6979 64.888 55.6979H87.98C89.972 55.6979 90.784 54.306 90.784 52.9102C90.784 51.5144 89.972 50.1225 87.98 50.1225L87.976 50.1265Z" fill="white"/>
<path d="M214.38 6.62524C213.94 5.23338 212.536 4.57324 210.988 4.57324C209.44 4.57324 208.108 5.23338 207.668 6.62524L193.28 52.5446C193.204 52.9104 193.132 53.2047 193.132 53.4234C193.132 54.8908 194.312 56.064 196.008 56.064C197.116 56.064 198.148 55.551 198.592 54.1591L201.912 43.5969H220.136L223.384 54.1591C223.824 55.551 224.932 56.064 226.04 56.064C227.736 56.064 228.916 54.8908 228.916 53.4234C228.916 53.2047 228.844 52.9104 228.768 52.5446L214.38 6.62524V6.62524ZM203.68 38.0215L210.984 14.5509L218.36 38.0215H203.676H203.68Z" fill="white"/>
<path d="M169.96 49.4229C168.468 49.4229 166.98 50.4369 166.98 52.3855V54.0995C166.98 56.0481 168.468 57.0622 169.96 57.0622C171.452 57.0622 172.94 56.0481 172.94 54.0995V52.3855C172.94 50.4369 171.452 49.4229 169.96 49.4229V49.4229Z" fill="white"/>
</svg>
