<svg width="96" height="96" viewBox="0 0 96 96" fill="none" xmlns="http://www.w3.org/2000/svg">
<path fill-rule="evenodd" clip-rule="evenodd" d="M11.2349 36.7399C12.85 36.7399 14.4698 35.6388 14.4698 33.5238V30.3903H14.4375V29.7572H14.4651V25.3254H37.8753C40.1734 25.3254 41.1102 23.7151 41.1102 22.1093C41.1102 20.5036 40.1734 18.8887 37.8753 18.8887H11.2349C9.53207 18.8887 8 20.4118 8 22.1093V29.7526H8.00462V30.3857H8V33.5192C8 35.6342 9.61975 36.7353 11.2349 36.7353V36.7399ZM57.4182 47.2668C57.4182 45.6611 56.3107 44.0508 54.1833 44.0508H51.0315L45.0371 44.0554L41.8852 44.0508C39.7579 44.0508 38.6504 45.6611 38.6504 47.2668C38.6504 48.8726 39.7579 50.4829 41.8852 50.4829H45.0371L51.0315 50.4783L54.1833 50.4829C56.3107 50.4829 57.4182 48.8726 57.4182 47.2668ZM14.4651 70.6978H37.8753V70.6933C40.1734 70.6933 41.1102 72.299 41.1102 73.9093C41.1102 75.5196 40.1734 77.1254 37.8753 77.1254H11.2349C9.53207 77.1254 8 75.6022 8 73.9093V64.3437H8.03231V64.2382H8V61.1047C8 58.9897 9.61975 57.8887 11.2349 57.8887C12.85 57.8887 14.4698 58.9897 14.4698 61.1047V64.2382H14.4651V64.3437V70.6978ZM88.1102 29.7526V22.1093C88.1102 20.4118 86.5781 18.8887 84.8753 18.8887H58.2349C55.9368 18.8887 55 20.499 55 22.1093C55 23.7196 55.9368 25.3254 58.2349 25.3254H81.645V29.7572H81.6727V30.3903H81.6404V33.5238C81.6404 35.6388 83.2602 36.7399 84.8753 36.7399C86.4904 36.7399 88.1102 35.6388 88.1102 33.5238V30.3903H88.1056V29.7572H88.1102V29.7526ZM81.6404 61.1047C81.6404 58.9897 83.2602 57.8887 84.8753 57.8887V57.8933C86.4904 57.8933 88.1102 58.9943 88.1102 61.1093V64.2428H88.0779V64.3483H88.1102V73.9139C88.1102 75.6068 86.5781 77.13 84.8753 77.13H58.2349C55.9368 77.13 55 75.5242 55 73.9139C55 72.3036 55.9368 70.6978 58.2349 70.6978H81.645V64.3437V64.2382H81.6404V61.1047Z" fill="white"/>
</svg>
