<svg width="25" height="24" viewBox="0 0 25 24" fill="none" xmlns="http://www.w3.org/2000/svg">
<path fill-rule="evenodd" clip-rule="evenodd" d="M6.64998 11.2501C6.64998 8.43345 8.93332 6.1501 11.75 6.1501C14.5666 6.1501 16.85 8.43345 16.85 11.2501C16.85 12.6203 16.3096 13.8643 15.4304 14.7806C15.4029 14.8023 15.3764 14.8258 15.3511 14.8512C15.3257 14.8766 15.3022 14.9031 15.2805 14.9305C14.3642 15.8097 13.1202 16.3501 11.75 16.3501C8.93332 16.3501 6.64998 14.0667 6.64998 11.2501ZM15.9512 16.7241C14.7877 17.6184 13.3309 18.1501 11.75 18.1501C7.93921 18.1501 4.84998 15.0609 4.84998 11.2501C4.84998 7.43933 7.93921 4.3501 11.75 4.3501C15.5607 4.3501 18.65 7.43933 18.65 11.2501C18.65 12.831 18.1183 14.2878 17.224 15.4513L19.8864 18.1137C20.2378 18.4652 20.2378 19.035 19.8864 19.3865C19.5349 19.738 18.9651 19.738 18.6136 19.3865L15.9512 16.7241Z" fill="white"/>
</svg>
