<svg width="17" height="16" viewBox="0 0 17 16" fill="none" xmlns="http://www.w3.org/2000/svg">
<path fill-rule="evenodd" clip-rule="evenodd" d="M2.64998 7.2501C2.64998 4.43345 4.93332 2.1501 7.74998 2.1501C10.5666 2.1501 12.85 4.43345 12.85 7.2501C12.85 8.6203 12.3096 9.86429 11.4304 10.7806C11.4029 10.8023 11.3764 10.8258 11.3511 10.8512C11.3257 10.8766 11.3022 10.9031 11.2805 10.9305C10.3642 11.8097 9.12018 12.3501 7.74998 12.3501C4.93332 12.3501 2.64998 10.0667 2.64998 7.2501ZM11.9512 12.7241C10.7877 13.6184 9.33091 14.1501 7.74998 14.1501C3.93921 14.1501 0.849976 11.0609 0.849976 7.2501C0.849976 3.43933 3.93921 0.350098 7.74998 0.350098C11.5607 0.350098 14.65 3.43933 14.65 7.2501C14.65 8.83103 14.1183 10.2878 13.224 11.4513L15.8864 14.1137C16.2378 14.4652 16.2378 15.035 15.8864 15.3865C15.5349 15.738 14.9651 15.738 14.6136 15.3865L11.9512 12.7241Z" fill="white"/>
</svg>
