<svg width="24" height="24" viewBox="0 0 24 24" fill="none" xmlns="http://www.w3.org/2000/svg">
<path fill-rule="evenodd" clip-rule="evenodd" d="M17.9131 6.08759C17.7934 5.96785 17.631 5.90059 17.4616 5.90059H10.5386C10.3692 5.90059 10.2068 5.96785 10.0871 6.08759C9.96736 6.20732 9.9001 6.36972 9.9001 6.53905C9.9001 7.0361 9.49715 7.43905 9.0001 7.43905C8.50304 7.43905 8.1001 7.0361 8.1001 6.53905C8.1001 5.89233 8.35701 5.27209 8.81431 4.81479C9.27161 4.35749 9.89184 4.10059 10.5386 4.10059H17.4616C18.1084 4.10059 18.7286 4.35749 19.1859 4.81479C19.6432 5.2721 19.9001 5.89233 19.9001 6.53905V13.4621C19.9001 14.1088 19.6432 14.7291 19.1859 15.1864C18.7286 15.6437 18.1084 15.9006 17.4616 15.9006C16.9646 15.9006 16.5616 15.4976 16.5616 15.0006C16.5616 14.5035 16.9646 14.1006 17.4616 14.1006C17.631 14.1006 17.7934 14.0333 17.9131 13.9136C18.0328 13.7938 18.1001 13.6315 18.1001 13.4621V6.53905C18.1001 6.36972 18.0328 6.20732 17.9131 6.08759ZM14.0996 10.539C14.0996 10.1864 13.8138 9.90059 13.4611 9.90059H6.53807C6.18546 9.90059 5.89961 10.1864 5.89961 10.539V17.4621C5.89961 17.8147 6.18546 18.1006 6.53807 18.1006H13.4611C13.8138 18.1006 14.0996 17.8147 14.0996 17.4621V10.539ZM13.4611 8.10059C14.8079 8.10059 15.8996 9.19232 15.8996 10.539V17.4621C15.8996 18.8088 14.8079 19.9006 13.4611 19.9006H6.53807C5.19135 19.9006 4.09961 18.8088 4.09961 17.4621V10.539C4.09961 9.19232 5.19135 8.10059 6.53807 8.10059H13.4611Z" fill="#B1B3B5"/>
</svg>
